<svg width="1280" height="480" viewBox="0 0 1280 480" fill="none" xmlns="http://www.w3.org/2000/svg">
  <defs>
    <linearGradient id="bg" x1="74" y1="40" x2="1206" y2="438" gradientUnits="userSpaceOnUse">
      <stop stop-color="#0B1424"/>
      <stop offset="0.48" stop-color="#11253F"/>
      <stop offset="1" stop-color="#17344D"/>
    </linearGradient>
    <linearGradient id="panelA" x1="0" y1="0" x2="320" y2="122" gradientUnits="userSpaceOnUse">
      <stop stop-color="#173B57"/>
      <stop offset="1" stop-color="#10263B"/>
    </linearGradient>
    <linearGradient id="panelB" x1="0" y1="0" x2="320" y2="122" gradientUnits="userSpaceOnUse">
      <stop stop-color="#1C5C4E"/>
      <stop offset="1" stop-color="#113128"/>
    </linearGradient>
    <linearGradient id="panelC" x1="0" y1="0" x2="320" y2="122" gradientUnits="userSpaceOnUse">
      <stop stop-color="#6C4716"/>
      <stop offset="1" stop-color="#35210C"/>
    </linearGradient>
    <pattern id="grid" x="0" y="0" width="36" height="36" patternUnits="userSpaceOnUse">
      <path d="M36 0H0V36" stroke="#9BB4D8" stroke-opacity="0.08"/>
    </pattern>
    <filter id="glow" x="836" y="-24" width="320" height="320" filterUnits="userSpaceOnUse" color-interpolation-filters="sRGB">
      <feGaussianBlur stdDeviation="56"/>
    </filter>
  </defs>

  <rect width="1280" height="480" rx="30" fill="url(#bg)"/>
  <rect width="1280" height="480" rx="30" fill="url(#grid)"/>

  <path d="M960 40C1040 72 1120 144 1184 256C1128 366 1038 428 908 442C1000 332 1030 194 960 40Z" fill="#0F1D31" stroke="#2E4A6A" stroke-opacity="0.5"/>
  <circle cx="1110" cy="362" r="126" fill="#0E1B2D" stroke="#264160" stroke-opacity="0.5"/>
  <circle cx="210" cy="388" r="142" fill="#0D1829" stroke="#203650" stroke-opacity="0.45"/>

  <g opacity="0.2" filter="url(#glow)">
    <circle cx="996" cy="120" r="72" fill="#E89E22"/>
  </g>

  <path d="M78 106H628" stroke="#2B4868" stroke-width="2"/>
  <path d="M78 346H628" stroke="#2B4868" stroke-width="2"/>
  <path d="M802 78H1160" stroke="#36567B" stroke-width="2"/>

  <rect x="78" y="76" width="214" height="36" rx="18" fill="#13263D" stroke="#31577F"/>
  <text x="102" y="100" fill="#C6D5EA" font-family="Arial, Helvetica, sans-serif" font-size="15" font-weight="700" letter-spacing="1.5">IRVING RUAS / RUAS.DEV</text>

  <text x="78" y="166" fill="#F3F7FB" font-family="Arial, Helvetica, sans-serif" font-size="56" font-weight="700">produto, receita</text>
  <text x="78" y="224" fill="#F3F7FB" font-family="Arial, Helvetica, sans-serif" font-size="56" font-weight="700">e automacao</text>

  <text x="78" y="282" fill="#A7BAD4" font-family="Arial, Helvetica, sans-serif" font-size="22" font-weight="400">Full stack engineer para funis, APIs, backoffice</text>
  <text x="78" y="314" fill="#A7BAD4" font-family="Arial, Helvetica, sans-serif" font-size="22" font-weight="400">e IA aplicada ao uso real.</text>

  <rect x="80" y="364" width="192" height="42" rx="21" fill="#11263B" stroke="#31577F"/>
  <rect x="286" y="364" width="182" height="42" rx="21" fill="#133025" stroke="#2E5D4A"/>
  <rect x="482" y="364" width="156" height="42" rx="21" fill="#32210F" stroke="#946428"/>
  <text x="105" y="390" fill="#DCE7F4" font-family="Arial, Helvetica, sans-serif" font-size="15" font-weight="700">revenue systems</text>
  <text x="316" y="390" fill="#DCF2E8" font-family="Arial, Helvetica, sans-serif" font-size="15" font-weight="700">APIs em producao</text>
  <text x="515" y="390" fill="#F6E2C2" font-family="Arial, Helvetica, sans-serif" font-size="15" font-weight="700">ops + AI</text>

  <g transform="translate(824 98)">
    <rect width="334" height="108" rx="20" fill="url(#panelA)" stroke="#3B648F"/>
    <text x="24" y="36" fill="#8EB6ED" font-family="Arial, Helvetica, sans-serif" font-size="13" font-weight="700" letter-spacing="1.3">DELIVERY</text>
    <text x="24" y="66" fill="#F3F6FA" font-family="Arial, Helvetica, sans-serif" font-size="22" font-weight="700">landing page</text>
    <text x="24" y="94" fill="#F3F6FA" font-family="Arial, Helvetica, sans-serif" font-size="22" font-weight="700">API + operacao interna</text>
    <rect x="236" y="26" width="74" height="18" rx="9" fill="#214A72"/>
    <text x="254" y="38" fill="#DDE9F9" font-family="Arial, Helvetica, sans-serif" font-size="10" font-weight="700" letter-spacing="0.9">MVP TO USE</text>
  </g>

  <g transform="translate(770 228)">
    <rect width="388" height="112" rx="20" fill="url(#panelB)" stroke="#3A7A64"/>
    <text x="24" y="36" fill="#85D7B6" font-family="Arial, Helvetica, sans-serif" font-size="13" font-weight="700" letter-spacing="1.3">PUBLIC SHIPPED</text>
    <text x="24" y="66" fill="#F3F6FA" font-family="Arial, Helvetica, sans-serif" font-size="20" font-weight="700">demos publicas para vendas,</text>
    <text x="24" y="92" fill="#F3F6FA" font-family="Arial, Helvetica, sans-serif" font-size="20" font-weight="700">validacao e recrutamento</text>
    <rect x="24" y="18" width="6" height="76" rx="3" fill="#73C8A5"/>
  </g>

  <g transform="translate(862 358)">
    <rect width="296" height="72" rx="20" fill="url(#panelC)" stroke="#A7742D"/>
    <text x="24" y="32" fill="#F2C36F" font-family="Arial, Helvetica, sans-serif" font-size="13" font-weight="700" letter-spacing="1.3">POSITIONING</text>
    <text x="24" y="54" fill="#FBF0E0" font-family="Arial, Helvetica, sans-serif" font-size="18" font-weight="700">engenharia com visao de negocio</text>
  </g>
</svg>
