<svg width="1280" height="460" viewBox="0 0 1280 460" fill="none" xmlns="http://www.w3.org/2000/svg">
  <defs>
    <pattern id="grid" x="0" y="0" width="36" height="36" patternUnits="userSpaceOnUse">
      <path d="M36 0H0V36" stroke="#9BB4D8" stroke-opacity="0.08"/>
    </pattern>
  </defs>

  <rect width="1280" height="460" rx="28" fill="#0E1B2D"/>
  <rect width="1280" height="460" rx="28" fill="url(#grid)"/>

  <circle cx="1088" cy="126" r="88" fill="#16314D"/>
  <circle cx="1042" cy="118" r="32" fill="#E6A128"/>
  <circle cx="188" cy="356" r="126" fill="#13253B"/>
  <circle cx="1124" cy="350" r="118" fill="#122235"/>

  <rect x="76" y="70" width="180" height="34" rx="17" fill="#142842" stroke="#32557D"/>
  <text x="99" y="92" fill="#C8D7EB" font-family="Arial, Helvetica, sans-serif" font-size="14" font-weight="700" letter-spacing="1.5">IRVING RUAS</text>

  <text x="76" y="164" fill="#F4F7FB" font-family="Arial, Helvetica, sans-serif" font-size="58" font-weight="700">produto digital</text>
  <text x="76" y="222" fill="#F4F7FB" font-family="Arial, Helvetica, sans-serif" font-size="58" font-weight="700">APIs e automacao</text>

  <text x="76" y="278" fill="#AFC0D8" font-family="Arial, Helvetica, sans-serif" font-size="24">funis, backoffice e pagamentos</text>
  <text x="76" y="312" fill="#AFC0D8" font-family="Arial, Helvetica, sans-serif" font-size="24">com foco em operacao real</text>

  <rect x="78" y="352" width="144" height="40" rx="20" fill="#13263D" stroke="#31567D"/>
  <rect x="236" y="352" width="144" height="40" rx="20" fill="#153328" stroke="#2D5D49"/>
  <rect x="394" y="352" width="144" height="40" rx="20" fill="#372410" stroke="#986526"/>
  <text x="118" y="377" fill="#DCE7F4" font-family="Arial, Helvetica, sans-serif" font-size="15" font-weight="700">produto</text>
  <text x="283" y="377" fill="#DFF2E9" font-family="Arial, Helvetica, sans-serif" font-size="15" font-weight="700">backend</text>
  <text x="430" y="377" fill="#F7E4C6" font-family="Arial, Helvetica, sans-serif" font-size="15" font-weight="700">automacao</text>

  <rect x="786" y="88" width="394" height="86" rx="20" fill="#17324F" stroke="#3B658F"/>
  <text x="814" y="120" fill="#8DB8F0" font-family="Arial, Helvetica, sans-serif" font-size="13" font-weight="700" letter-spacing="1.4">FUNIS</text>
  <text x="814" y="152" fill="#F4F7FB" font-family="Arial, Helvetica, sans-serif" font-size="22" font-weight="700">landing, catalogo e checkout</text>

  <rect x="754" y="196" width="426" height="86" rx="20" fill="#1A4B42" stroke="#3A7A66"/>
  <text x="782" y="228" fill="#8DDFC0" font-family="Arial, Helvetica, sans-serif" font-size="13" font-weight="700" letter-spacing="1.4">APIs</text>
  <text x="782" y="260" fill="#F4F7FB" font-family="Arial, Helvetica, sans-serif" font-size="22" font-weight="700">auth, pagamentos e integracoes</text>

  <rect x="830" y="304" width="350" height="86" rx="20" fill="#5A3D16" stroke="#B17A2D"/>
  <text x="858" y="336" fill="#F2C46E" font-family="Arial, Helvetica, sans-serif" font-size="13" font-weight="700" letter-spacing="1.4">OPS</text>
  <text x="858" y="368" fill="#FFF3E2" font-family="Arial, Helvetica, sans-serif" font-size="22" font-weight="700">backoffice, IA e automacao</text>
</svg>
