<svg width="1280" height="460" viewBox="0 0 1280 460" fill="none" xmlns="http://www.w3.org/2000/svg">
  <defs>
    <linearGradient id="bg" x1="70" y1="34" x2="1198" y2="426" gradientUnits="userSpaceOnUse">
      <stop stop-color="#081323"/>
      <stop offset="0.52" stop-color="#10213A"/>
      <stop offset="1" stop-color="#1D3C59"/>
    </linearGradient>
    <radialGradient id="blueNebula" cx="0" cy="0" r="1" gradientUnits="userSpaceOnUse" gradientTransform="translate(1118 122) rotate(127.565) scale(472.614 369.456)">
      <stop stop-color="#9BC3F0" stop-opacity="0.18"/>
      <stop offset="0.42" stop-color="#416A99" stop-opacity="0.12"/>
      <stop offset="1" stop-color="#0F2137" stop-opacity="0"/>
    </radialGradient>
    <radialGradient id="goldGlow" cx="0" cy="0" r="1" gradientUnits="userSpaceOnUse" gradientTransform="translate(1198 178) rotate(130.816) scale(318.879 285.24)">
      <stop stop-color="#FFDB9B" stop-opacity="0.92"/>
      <stop offset="0.34" stop-color="#E6A34A" stop-opacity="0.48"/>
      <stop offset="1" stop-color="#E6A34A" stop-opacity="0"/>
    </radialGradient>
    <linearGradient id="panelBlue" x1="0" y1="0" x2="392" y2="116" gradientUnits="userSpaceOnUse">
      <stop stop-color="#264C75" stop-opacity="0.92"/>
      <stop offset="1" stop-color="#1A3451" stop-opacity="0.9"/>
    </linearGradient>
    <linearGradient id="panelGreen" x1="0" y1="0" x2="418" y2="118" gradientUnits="userSpaceOnUse">
      <stop stop-color="#24534D" stop-opacity="0.92"/>
      <stop offset="1" stop-color="#173C38" stop-opacity="0.9"/>
    </linearGradient>
    <linearGradient id="panelGold" x1="0" y1="0" x2="362" y2="110" gradientUnits="userSpaceOnUse">
      <stop stop-color="#835322" stop-opacity="0.94"/>
      <stop offset="1" stop-color="#4F3012" stop-opacity="0.92"/>
    </linearGradient>
    <linearGradient id="swooshGold" x1="254" y1="356" x2="1228" y2="398" gradientUnits="userSpaceOnUse">
      <stop stop-color="#FFFFFF" stop-opacity="0"/>
      <stop offset="0.24" stop-color="#EFC27A" stop-opacity="0.2"/>
      <stop offset="0.54" stop-color="#E7A84C" stop-opacity="0.9"/>
      <stop offset="1" stop-color="#FFD594" stop-opacity="0.18"/>
    </linearGradient>
    <linearGradient id="swooshBlue" x1="40" y1="420" x2="704" y2="322" gradientUnits="userSpaceOnUse">
      <stop stop-color="#D8E8FF" stop-opacity="0.04"/>
      <stop offset="0.46" stop-color="#8CB3E0" stop-opacity="0.26"/>
      <stop offset="1" stop-color="#D8E8FF" stop-opacity="0.02"/>
    </linearGradient>
    <pattern id="grid" x="0" y="0" width="36" height="36" patternUnits="userSpaceOnUse">
      <path d="M36 0H0V36" stroke="#9BB4D8" stroke-opacity="0.09"/>
    </pattern>
    <pattern id="dust" x="0" y="0" width="96" height="96" patternUnits="userSpaceOnUse">
      <circle cx="14" cy="18" r="1.2" fill="#E6EEF8" fill-opacity="0.22"/>
      <circle cx="68" cy="32" r="0.9" fill="#F8C878" fill-opacity="0.18"/>
      <circle cx="40" cy="74" r="1" fill="#E6EEF8" fill-opacity="0.16"/>
      <circle cx="86" cy="82" r="0.8" fill="#E6EEF8" fill-opacity="0.16"/>
    </pattern>
  </defs>

  <rect width="1280" height="460" rx="28" fill="url(#bg)"/>
  <rect width="1280" height="460" rx="28" fill="url(#blueNebula)"/>
  <rect width="1280" height="460" rx="28" fill="url(#grid)"/>
  <rect width="1280" height="460" rx="28" fill="url(#dust)"/>

  <path d="M-36 390C182 468 432 470 688 324C838 238 1002 222 1316 414" stroke="url(#swooshGold)" stroke-width="2.2"/>
  <path d="M-10 414C184 474 408 470 618 388" stroke="url(#swooshBlue)" stroke-width="1.8"/>
  <path d="M682 316C842 248 952 248 1096 312" stroke="#E3B36B" stroke-opacity="0.22" stroke-width="1.2"/>

  <circle cx="1208" cy="172" r="236" fill="url(#goldGlow)"/>
  <circle cx="1186" cy="178" r="210" stroke="#F0C77F" stroke-opacity="0.58" stroke-width="1.8"/>
  <circle cx="1186" cy="178" r="232" stroke="#D99B44" stroke-opacity="0.2" stroke-width="1.3"/>

  <path d="M72 78H706" stroke="#627B9B" stroke-opacity="0.7" stroke-width="1.6"/>
  <path d="M72 286H648" stroke="#5B7594" stroke-opacity="0.72" stroke-width="1.4"/>

  <rect x="72" y="38" width="252" height="46" rx="23" fill="#162B45" fill-opacity="0.82" stroke="#5E86B1" stroke-width="1.6"/>
  <text x="114" y="68" fill="#E9EDF4" font-family="Liberation Sans, Arial, Helvetica, sans-serif" font-size="26" font-weight="700" letter-spacing="2.8">IRVING RUAS</text>

  <text x="72" y="156" fill="#F4F5F7" font-family="Liberation Sans, Arial, Helvetica, sans-serif" font-size="60" font-weight="700">engenharia de produto</text>
  <text x="72" y="214" fill="#F4F5F7" font-family="Liberation Sans, Arial, Helvetica, sans-serif" font-size="60" font-weight="700">APIs, billing e automacao</text>

  <text x="72" y="328" fill="#CCD3DD" font-family="Liberation Sans, Arial, Helvetica, sans-serif" font-size="26" font-weight="400">produto, APIs, pagamentos e automacao</text>
  <text x="72" y="370" fill="#CCD3DD" font-family="Liberation Sans, Arial, Helvetica, sans-serif" font-size="26" font-weight="400">em sistemas usados por clientes reais</text>

  <rect x="72" y="394" width="194" height="48" rx="24" fill="#182B47" fill-opacity="0.84" stroke="#5E86B1" stroke-width="1.6"/>
  <rect x="282" y="394" width="192" height="48" rx="24" fill="#1A3328" fill-opacity="0.9" stroke="#4F7C60" stroke-width="1.6"/>
  <rect x="490" y="394" width="214" height="48" rx="24" fill="#4B3118" fill-opacity="0.86" stroke="#A87334" stroke-width="1.6"/>
  <text x="122" y="425" fill="#F5F7FA" font-family="Liberation Sans, Arial, Helvetica, sans-serif" font-size="18" font-weight="700">full stack</text>
  <text x="350" y="425" fill="#F5F7FA" font-family="Liberation Sans, Arial, Helvetica, sans-serif" font-size="18" font-weight="700">payments</text>
  <text x="548" y="425" fill="#F5F7FA" font-family="Liberation Sans, Arial, Helvetica, sans-serif" font-size="18" font-weight="700">integracoes</text>

  <g transform="translate(820 90)">
    <rect width="382" height="118" rx="22" fill="url(#panelBlue)" stroke="#6C94BF" stroke-width="1.8"/>
    <circle cx="40" cy="33" r="10" fill="#7EA9D6"/>
    <path d="M24 58C24 48.6 31.6 41 41 41C50.4 41 58 48.6 58 58V60H24V58Z" fill="#7EA9D6"/>
    <text x="72" y="46" fill="#9CC0EA" font-family="Liberation Sans, Arial, Helvetica, sans-serif" font-size="18" font-weight="700" letter-spacing="1.6">PERFIL</text>
    <text x="72" y="90" fill="#F3F5F8" font-family="Liberation Sans, Arial, Helvetica, sans-serif" font-size="26" font-weight="700">senior full stack</text>
    <text x="72" y="126" fill="#F3F5F8" font-family="Liberation Sans, Arial, Helvetica, sans-serif" font-size="26" font-weight="700">produto, backend e IA</text>
  </g>

  <g transform="translate(788 222)">
    <rect width="418" height="122" rx="22" fill="url(#panelGreen)" stroke="#6AA58F" stroke-width="1.8"/>
    <circle cx="38" cy="34" r="8" fill="#7EB6A1"/>
    <circle cx="56" cy="36" r="8" fill="#7EB6A1" fill-opacity="0.84"/>
    <path d="M22 58C22 49.8 28.6 43.2 36.8 43.2C45 43.2 51.6 49.8 51.6 58V60H22V58Z" fill="#7EB6A1"/>
    <path d="M40 60C40 51.8 46.6 45.2 54.8 45.2C63 45.2 69.6 51.8 69.6 60V62H40V60Z" fill="#7EB6A1" fill-opacity="0.84"/>
    <text x="94" y="48" fill="#8FD0B8" font-family="Liberation Sans, Arial, Helvetica, sans-serif" font-size="18" font-weight="700" letter-spacing="1.6">PARCERIAS</text>
    <text x="72" y="92" fill="#F3F5F8" font-family="Liberation Sans, Arial, Helvetica, sans-serif" font-size="26" font-weight="700">sistemas reais</text>
    <text x="72" y="128" fill="#F3F5F8" font-family="Liberation Sans, Arial, Helvetica, sans-serif" font-size="26" font-weight="700">para operacao e negocio</text>
  </g>

  <g transform="translate(864 344)">
    <rect width="342" height="96" rx="22" fill="url(#panelGold)" stroke="#D9A45B" stroke-width="1.8"/>
    <text x="26" y="30" fill="#EFC37C" font-family="Liberation Sans, Arial, Helvetica, sans-serif" font-size="18" font-weight="700" letter-spacing="1.8">STACK</text>
    <text x="26" y="62" fill="#FBF1E2" font-family="Liberation Sans, Arial, Helvetica, sans-serif" font-size="25" font-weight="700">Node.js, TypeScript</text>
    <text x="26" y="92" fill="#FBF1E2" font-family="Liberation Sans, Arial, Helvetica, sans-serif" font-size="25" font-weight="700">billing e integracoes</text>
  </g>
</svg>
