<svg width="720" height="420" viewBox="0 0 720 420" fill="none" xmlns="http://www.w3.org/2000/svg">
  <rect width="720" height="420" rx="28" fill="#16345C"/>
  <rect x="452" y="24" width="244" height="372" rx="24" fill="#1E446F"/>
  <circle cx="114" cy="336" r="96" fill="#112742"/>
  <circle cx="620" cy="86" r="64" fill="#244F84"/>
  <rect x="40" y="40" width="150" height="34" rx="17" fill="#0F223D" stroke="#5E86CA"/>
  <text x="62" y="62" fill="#B8CEEF" font-family="Arial, Helvetica, sans-serif" font-size="13" font-weight="700" letter-spacing="1">PAYMENTS API</text>
  <text x="40" y="130" fill="#F4F8FF" font-family="Arial, Helvetica, sans-serif" font-size="34" font-weight="700">api-demo</text>
  <text x="40" y="216" fill="#D8E4F8" font-family="Arial, Helvetica, sans-serif" font-size="18">idempotency, webhooks</text>
  <text x="40" y="244" fill="#D8E4F8" font-family="Arial, Helvetica, sans-serif" font-size="18">e lead flow seguro</text>
  <rect x="40" y="338" width="98" height="34" rx="17" fill="#E1EBFC"/>
  <rect x="150" y="338" width="122" height="34" rx="17" fill="#E1EBFC"/>
  <rect x="284" y="338" width="118" height="34" rx="17" fill="#E1EBFC"/>
  <text x="67" y="360" fill="#214C8F" font-family="Arial, Helvetica, sans-serif" font-size="13" font-weight="700">NODE</text>
  <text x="173" y="360" fill="#214C8F" font-family="Arial, Helvetica, sans-serif" font-size="13" font-weight="700">TYPESCRIPT</text>
  <text x="311" y="360" fill="#214C8F" font-family="Arial, Helvetica, sans-serif" font-size="13" font-weight="700">PAYMENTS</text>
  <rect x="476" y="52" width="196" height="128" rx="18" fill="#F3F7FF"/>
  <text x="500" y="84" fill="#335C9E" font-family="Arial, Helvetica, sans-serif" font-size="12" font-weight="700" letter-spacing="1.2">FLOW</text>
  <text x="500" y="114" fill="#173866" font-family="Arial, Helvetica, sans-serif" font-size="16" font-weight="700">checkout</text>
  <text x="500" y="138" fill="#173866" font-family="Arial, Helvetica, sans-serif" font-size="16" font-weight="700">webhook</text>
  <text x="500" y="162" fill="#173866" font-family="Arial, Helvetica, sans-serif" font-size="16" font-weight="700">retry-safe</text>
  <rect x="476" y="194" width="196" height="154" rx="18" fill="#132540" stroke="#5E86CA"/>
  <text x="500" y="226" fill="#A8C4F7" font-family="Arial, Helvetica, sans-serif" font-size="12" font-weight="700" letter-spacing="1.2">OPS</text>
  <rect x="500" y="246" width="138" height="10" rx="5" fill="#395C92"/>
  <rect x="500" y="268" width="154" height="10" rx="5" fill="#395C92"/>
  <rect x="500" y="290" width="118" height="10" rx="5" fill="#395C92"/>
  <rect x="500" y="312" width="148" height="10" rx="5" fill="#395C92"/>
</svg>
