<svg width="720" height="420" viewBox="0 0 720 420" fill="none" xmlns="http://www.w3.org/2000/svg">
  <rect width="720" height="420" rx="28" fill="#1B3966"/>
  <rect x="452" y="24" width="244" height="372" rx="24" fill="#234476"/>
  <rect x="476" y="52" width="196" height="128" rx="18" fill="#F3F7FF"/>
  <text x="500" y="84" fill="#29549B" font-family="Arial, Helvetica, sans-serif" font-size="12" font-weight="700" letter-spacing="1.3">BACKEND</text>
  <text x="500" y="114" fill="#173866" font-family="Arial, Helvetica, sans-serif" font-size="16" font-weight="700">catalogo</text>
  <text x="500" y="138" fill="#173866" font-family="Arial, Helvetica, sans-serif" font-size="16" font-weight="700">leads</text>
  <text x="500" y="162" fill="#173866" font-family="Arial, Helvetica, sans-serif" font-size="16" font-weight="700">metricas</text>
  <rect x="476" y="194" width="196" height="154" rx="18" fill="#173459" stroke="#5C8FE6"/>
  <text x="500" y="226" fill="#9AC0FF" font-family="Arial, Helvetica, sans-serif" font-size="12" font-weight="700" letter-spacing="1.3">ENDPOINTS</text>
  <rect x="500" y="246" width="138" height="10" rx="5" fill="#3B65A2"/>
  <rect x="500" y="268" width="160" height="10" rx="5" fill="#3B65A2"/>
  <rect x="500" y="290" width="118" height="10" rx="5" fill="#3B65A2"/>
  <rect x="500" y="312" width="148" height="10" rx="5" fill="#3B65A2"/>
  <rect x="40" y="40" width="134" height="34" rx="17" fill="#0D213E" stroke="#4F84D9"/>
  <text x="62" y="62" fill="#A9C8FF" font-family="Arial, Helvetica, sans-serif" font-size="13" font-weight="700" letter-spacing="1">NODE API</text>
  <text x="40" y="130" fill="#F7FAFF" font-family="Arial, Helvetica, sans-serif" font-size="34" font-weight="700">Escola Tecnica</text>
  <text x="40" y="170" fill="#F7FAFF" font-family="Arial, Helvetica, sans-serif" font-size="34" font-weight="700">Demo API</text>
  <text x="40" y="230" fill="#D7E4FF" font-family="Arial, Helvetica, sans-serif" font-size="18">catalogo, leads</text>
  <text x="40" y="258" fill="#D7E4FF" font-family="Arial, Helvetica, sans-serif" font-size="18">intents e metricas</text>
  <rect x="40" y="338" width="96" height="34" rx="17" fill="#DFE9FF"/>
  <rect x="148" y="338" width="128" height="34" rx="17" fill="#DFE9FF"/>
  <rect x="288" y="338" width="102" height="34" rx="17" fill="#DFE9FF"/>
  <text x="64" y="360" fill="#1D4C90" font-family="Arial, Helvetica, sans-serif" font-size="13" font-weight="700">NODE</text>
  <text x="170" y="360" fill="#1D4C90" font-family="Arial, Helvetica, sans-serif" font-size="13" font-weight="700">TYPESCRIPT</text>
  <text x="313" y="360" fill="#1D4C90" font-family="Arial, Helvetica, sans-serif" font-size="13" font-weight="700">EXPRESS</text>
</svg>
