<svg width="720" height="420" viewBox="0 0 720 420" fill="none" xmlns="http://www.w3.org/2000/svg">
  <defs>
    <linearGradient id="apiBg" x1="48" y1="36" x2="650" y2="396" gradientUnits="userSpaceOnUse">
      <stop stop-color="#102340"/>
      <stop offset="0.55" stop-color="#17345C"/>
      <stop offset="1" stop-color="#214A79"/>
    </linearGradient>
    <linearGradient id="apiPanel" x1="476" y1="24" x2="694" y2="396" gradientUnits="userSpaceOnUse">
      <stop stop-color="#1F3150"/>
      <stop offset="1" stop-color="#14253C"/>
    </linearGradient>
    <pattern id="apiGrid" x="0" y="0" width="28" height="28" patternUnits="userSpaceOnUse">
      <path d="M28 0H0V28" stroke="#AEC4E8" stroke-opacity="0.08"/>
    </pattern>
  </defs>

  <rect width="720" height="420" rx="28" fill="url(#apiBg)"/>
  <rect width="720" height="420" rx="28" fill="url(#apiGrid)"/>

  <circle cx="126" cy="342" r="106" fill="#0F1E35" stroke="#38598B" stroke-opacity="0.4"/>
  <circle cx="612" cy="78" r="70" fill="#12345F" stroke="#5E86CA" stroke-opacity="0.45"/>

  <rect x="40" y="40" width="150" height="34" rx="17" fill="#0E2039" stroke="#5E86CA"/>
  <text x="62" y="62" fill="#B8CEEF" font-family="Arial, Helvetica, sans-serif" font-size="14" font-weight="700" letter-spacing="1">PAYMENTS API</text>

  <text x="40" y="128" fill="#F4F8FF" font-family="Arial, Helvetica, sans-serif" font-size="42" font-weight="700">api-demo</text>
  <text x="40" y="172" fill="#F4F8FF" font-family="Arial, Helvetica, sans-serif" font-size="42" font-weight="700">cobranca segura</text>
  <text x="40" y="206" fill="#D8E4F8" font-family="Arial, Helvetica, sans-serif" font-size="18">webhooks, retries</text>
  <text x="40" y="232" fill="#D8E4F8" font-family="Arial, Helvetica, sans-serif" font-size="18">idempotencia e</text>
  <text x="40" y="258" fill="#D8E4F8" font-family="Arial, Helvetica, sans-serif" font-size="18">fluxo comercial</text>

  <path d="M40 286H404" stroke="#44689E" stroke-width="2"/>
  <rect x="40" y="308" width="98" height="34" rx="17" fill="#E1EBFC"/>
  <rect x="150" y="308" width="122" height="34" rx="17" fill="#E1EBFC"/>
  <rect x="284" y="308" width="118" height="34" rx="17" fill="#E1EBFC"/>
  <text x="67" y="330" fill="#214C8F" font-family="Arial, Helvetica, sans-serif" font-size="13" font-weight="700">NODE</text>
  <text x="173" y="330" fill="#214C8F" font-family="Arial, Helvetica, sans-serif" font-size="13" font-weight="700">TYPESCRIPT</text>
  <text x="311" y="330" fill="#214C8F" font-family="Arial, Helvetica, sans-serif" font-size="13" font-weight="700">PAYMENTS</text>

  <rect x="454" y="24" width="242" height="372" rx="24" fill="url(#apiPanel)"/>
  <rect x="478" y="50" width="194" height="126" rx="18" fill="#F3F7FF"/>
  <text x="502" y="82" fill="#335C9E" font-family="Arial, Helvetica, sans-serif" font-size="12" font-weight="700" letter-spacing="1.2">OPERACAO</text>
  <text x="502" y="110" fill="#173866" font-family="Arial, Helvetica, sans-serif" font-size="19" font-weight="700">cobranca</text>
  <text x="502" y="136" fill="#173866" font-family="Arial, Helvetica, sans-serif" font-size="19" font-weight="700">webhooks</text>
  <text x="502" y="162" fill="#173866" font-family="Arial, Helvetica, sans-serif" font-size="19" font-weight="700">idempotencia</text>

  <rect x="478" y="190" width="194" height="160" rx="18" fill="#132540" stroke="#5E86CA"/>
  <text x="502" y="222" fill="#A8C4F7" font-family="Arial, Helvetica, sans-serif" font-size="12" font-weight="700" letter-spacing="1.2">CONTROLES</text>
  <rect x="502" y="244" width="138" height="10" rx="5" fill="#395C92"/>
  <rect x="502" y="266" width="154" height="10" rx="5" fill="#395C92"/>
  <rect x="502" y="288" width="118" height="10" rx="5" fill="#395C92"/>
  <rect x="502" y="310" width="148" height="10" rx="5" fill="#395C92"/>
  <rect x="502" y="332" width="128" height="10" rx="5" fill="#395C92"/>

  <rect x="478" y="362" width="114" height="20" rx="10" fill="#224168"/>
  <rect x="600" y="362" width="72" height="20" rx="10" fill="#7A531D"/>
  <text x="487" y="376" fill="#D8E4F8" font-family="Arial, Helvetica, sans-serif" font-size="10" font-weight="700" letter-spacing="0.8">IDEMPOTENCIA</text>
  <text x="611" y="376" fill="#F6E4C6" font-family="Arial, Helvetica, sans-serif" font-size="10" font-weight="700" letter-spacing="0.8">WEBHOOK</text>
</svg>
