<svg width="720" height="420" viewBox="0 0 720 420" fill="none" xmlns="http://www.w3.org/2000/svg">
  <rect width="720" height="420" rx="28" fill="#3E301A"/>
  <rect x="454" y="24" width="242" height="372" rx="24" fill="#4A391F"/>
  <rect x="478" y="52" width="194" height="126" rx="18" fill="#FFF7EA"/>
  <text x="502" y="86" fill="#A06E1E" font-family="Arial, Helvetica, sans-serif" font-size="13" font-weight="700" letter-spacing="1.3">OPS TOOLING</text>
  <text x="502" y="114" fill="#624414" font-family="Arial, Helvetica, sans-serif" font-size="22" font-weight="700">atendimento</text>
  <text x="502" y="140" fill="#624414" font-family="Arial, Helvetica, sans-serif" font-size="22" font-weight="700">assistido</text>
  <rect x="478" y="196" width="194" height="152" rx="18" fill="#342815" stroke="#D7AA58"/>
  <text x="502" y="228" fill="#F2C46F" font-family="Arial, Helvetica, sans-serif" font-size="12" font-weight="700" letter-spacing="1.3">CAPACIDADES</text>
  <rect x="502" y="248" width="160" height="10" rx="5" fill="#7E6030"/>
  <rect x="502" y="270" width="120" height="10" rx="5" fill="#7E6030"/>
  <rect x="502" y="292" width="148" height="10" rx="5" fill="#7E6030"/>
  <rect x="502" y="314" width="136" height="10" rx="5" fill="#7E6030"/>
  <rect x="40" y="40" width="194" height="34" rx="17" fill="#241B0F" stroke="#D7AA58"/>
  <text x="61" y="62" fill="#F4D29A" font-family="Arial, Helvetica, sans-serif" font-size="14" font-weight="700" letter-spacing="1">AUTOMACAO + IA</text>
  <text x="40" y="130" fill="#FFF9F0" font-family="Arial, Helvetica, sans-serif" font-size="38" font-weight="700">BotAssist</text>
  <text x="40" y="172" fill="#FFF9F0" font-family="Arial, Helvetica, sans-serif" font-size="38" font-weight="700">WhatsApp</text>
  <text x="40" y="236" fill="#F2E1C0" font-family="Arial, Helvetica, sans-serif" font-size="19">desktop app para operacao</text>
  <text x="40" y="264" fill="#F2E1C0" font-family="Arial, Helvetica, sans-serif" font-size="19">no WhatsApp com Electron,</text>
  <text x="40" y="292" fill="#F2E1C0" font-family="Arial, Helvetica, sans-serif" font-size="19">Baileys e IA</text>
  <rect x="40" y="338" width="118" height="34" rx="17" fill="#FFF1D8"/>
  <rect x="170" y="338" width="100" height="34" rx="17" fill="#FFF1D8"/>
  <rect x="282" y="338" width="62" height="34" rx="17" fill="#FFF1D8"/>
  <text x="64" y="360" fill="#6D4A14" font-family="Arial, Helvetica, sans-serif" font-size="13" font-weight="700">ELECTRON</text>
  <text x="194" y="360" fill="#6D4A14" font-family="Arial, Helvetica, sans-serif" font-size="13" font-weight="700">BAILEYS</text>
  <text x="303" y="360" fill="#6D4A14" font-family="Arial, Helvetica, sans-serif" font-size="13" font-weight="700">IA</text>
</svg>
