<svg width="720" height="420" viewBox="0 0 720 420" fill="none" xmlns="http://www.w3.org/2000/svg">
  <defs>
    <linearGradient id="schoolApiBg" x1="48" y1="36" x2="650" y2="396" gradientUnits="userSpaceOnUse">
      <stop stop-color="#10284C"/>
      <stop offset="0.55" stop-color="#1A3B68"/>
      <stop offset="1" stop-color="#245284"/>
    </linearGradient>
    <linearGradient id="schoolApiPanel" x1="476" y1="24" x2="694" y2="396" gradientUnits="userSpaceOnUse">
      <stop stop-color="#1F3A67"/>
      <stop offset="1" stop-color="#142849"/>
    </linearGradient>
    <pattern id="schoolApiGrid" x="0" y="0" width="28" height="28" patternUnits="userSpaceOnUse">
      <path d="M28 0H0V28" stroke="#BFD3F0" stroke-opacity="0.08"/>
    </pattern>
  </defs>

  <rect width="720" height="420" rx="28" fill="url(#schoolApiBg)"/>
  <rect width="720" height="420" rx="28" fill="url(#schoolApiGrid)"/>

  <circle cx="126" cy="342" r="106" fill="#10213C" stroke="#42689E" stroke-opacity="0.4"/>
  <circle cx="612" cy="78" r="70" fill="#173B6A" stroke="#6D9EF0" stroke-opacity="0.45"/>

  <rect x="40" y="40" width="144" height="34" rx="17" fill="#0D213E" stroke="#5B8FE2"/>
  <text x="63" y="62" fill="#B8D1FF" font-family="Arial, Helvetica, sans-serif" font-size="14" font-weight="700" letter-spacing="1">NODE API</text>

  <text x="40" y="128" fill="#F7FAFF" font-family="Arial, Helvetica, sans-serif" font-size="42" font-weight="700">Escola Tecnica</text>
  <text x="40" y="172" fill="#F7FAFF" font-family="Arial, Helvetica, sans-serif" font-size="42" font-weight="700">Demo API</text>
  <text x="40" y="206" fill="#D9E6FF" font-family="Arial, Helvetica, sans-serif" font-size="18">catalogo, leads</text>
  <text x="40" y="232" fill="#D9E6FF" font-family="Arial, Helvetica, sans-serif" font-size="18">intencoes e metricas</text>
  <text x="40" y="258" fill="#D9E6FF" font-family="Arial, Helvetica, sans-serif" font-size="18">para jornada comercial</text>

  <path d="M40 286H404" stroke="#4A70A7" stroke-width="2"/>
  <rect x="40" y="308" width="96" height="34" rx="17" fill="#DFE9FF"/>
  <rect x="148" y="308" width="128" height="34" rx="17" fill="#DFE9FF"/>
  <rect x="288" y="308" width="102" height="34" rx="17" fill="#DFE9FF"/>
  <text x="64" y="330" fill="#1D4C90" font-family="Arial, Helvetica, sans-serif" font-size="13" font-weight="700">NODE</text>
  <text x="170" y="330" fill="#1D4C90" font-family="Arial, Helvetica, sans-serif" font-size="13" font-weight="700">TYPESCRIPT</text>
  <text x="313" y="330" fill="#1D4C90" font-family="Arial, Helvetica, sans-serif" font-size="13" font-weight="700">EXPRESS</text>

  <rect x="454" y="24" width="242" height="372" rx="24" fill="url(#schoolApiPanel)"/>
  <rect x="478" y="50" width="194" height="126" rx="18" fill="#F3F7FF"/>
  <text x="502" y="82" fill="#3561A8" font-family="Arial, Helvetica, sans-serif" font-size="12" font-weight="700" letter-spacing="1.2">BACKEND</text>
  <text x="502" y="110" fill="#173866" font-family="Arial, Helvetica, sans-serif" font-size="19" font-weight="700">catalogo</text>
  <text x="502" y="136" fill="#173866" font-family="Arial, Helvetica, sans-serif" font-size="19" font-weight="700">leads</text>
  <text x="502" y="162" fill="#173866" font-family="Arial, Helvetica, sans-serif" font-size="19" font-weight="700">metricas</text>

  <rect x="478" y="190" width="194" height="160" rx="18" fill="#173459" stroke="#6B9EEF"/>
  <text x="502" y="222" fill="#A8C7FF" font-family="Arial, Helvetica, sans-serif" font-size="12" font-weight="700" letter-spacing="1.2">ENDPOINTS</text>
  <rect x="502" y="244" width="138" height="10" rx="5" fill="#3F6FB2"/>
  <rect x="502" y="266" width="160" height="10" rx="5" fill="#3F6FB2"/>
  <rect x="502" y="288" width="118" height="10" rx="5" fill="#3F6FB2"/>
  <rect x="502" y="310" width="148" height="10" rx="5" fill="#3F6FB2"/>
  <rect x="502" y="332" width="132" height="10" rx="5" fill="#3F6FB2"/>

  <rect x="478" y="362" width="82" height="20" rx="10" fill="#244974"/>
  <rect x="570" y="362" width="102" height="20" rx="10" fill="#31598B"/>
  <text x="499" y="376" fill="#E3ECFF" font-family="Arial, Helvetica, sans-serif" font-size="10" font-weight="700" letter-spacing="0.8">ACESSO</text>
  <text x="589" y="376" fill="#E3ECFF" font-family="Arial, Helvetica, sans-serif" font-size="10" font-weight="700" letter-spacing="0.8">METRICAS</text>
</svg>
