<svg width="720" height="420" viewBox="0 0 720 420" fill="none" xmlns="http://www.w3.org/2000/svg">
  <defs>
    <linearGradient id="botBg" x1="48" y1="36" x2="650" y2="396" gradientUnits="userSpaceOnUse">
      <stop stop-color="#3D2C17"/>
      <stop offset="0.55" stop-color="#4E391C"/>
      <stop offset="1" stop-color="#624622"/>
    </linearGradient>
    <linearGradient id="botPanel" x1="476" y1="24" x2="694" y2="396" gradientUnits="userSpaceOnUse">
      <stop stop-color="#5B4320"/>
      <stop offset="1" stop-color="#3B2A15"/>
    </linearGradient>
    <pattern id="botGrid" x="0" y="0" width="28" height="28" patternUnits="userSpaceOnUse">
      <path d="M28 0H0V28" stroke="#E8D0A0" stroke-opacity="0.08"/>
    </pattern>
  </defs>

  <rect width="720" height="420" rx="28" fill="url(#botBg)"/>
  <rect width="720" height="420" rx="28" fill="url(#botGrid)"/>

  <circle cx="126" cy="342" r="106" fill="#302210" stroke="#8A6733" stroke-opacity="0.35"/>
  <circle cx="612" cy="78" r="70" fill="#6F5327" stroke="#E0B267" stroke-opacity="0.35"/>

  <rect x="40" y="40" width="194" height="34" rx="17" fill="#241B0F" stroke="#D7AA58"/>
  <text x="61" y="62" fill="#F4D29A" font-family="Arial, Helvetica, sans-serif" font-size="14" font-weight="700" letter-spacing="1">AUTOMACAO + IA</text>

  <text x="40" y="128" fill="#FFF9F0" font-family="Arial, Helvetica, sans-serif" font-size="42" font-weight="700">BotAssist</text>
  <text x="40" y="172" fill="#FFF9F0" font-family="Arial, Helvetica, sans-serif" font-size="42" font-weight="700">WhatsApp</text>
  <text x="40" y="206" fill="#F2E1C0" font-family="Arial, Helvetica, sans-serif" font-size="18">atendimento assistido</text>
  <text x="40" y="232" fill="#F2E1C0" font-family="Arial, Helvetica, sans-serif" font-size="18">operacao no WhatsApp</text>
  <text x="40" y="258" fill="#F2E1C0" font-family="Arial, Helvetica, sans-serif" font-size="18">e tooling interno</text>

  <path d="M40 286H404" stroke="#846238" stroke-width="2"/>
  <rect x="40" y="308" width="118" height="34" rx="17" fill="#FFF1D8"/>
  <rect x="170" y="308" width="100" height="34" rx="17" fill="#FFF1D8"/>
  <rect x="282" y="308" width="62" height="34" rx="17" fill="#FFF1D8"/>
  <text x="64" y="330" fill="#6D4A14" font-family="Arial, Helvetica, sans-serif" font-size="13" font-weight="700">ELECTRON</text>
  <text x="194" y="330" fill="#6D4A14" font-family="Arial, Helvetica, sans-serif" font-size="13" font-weight="700">BAILEYS</text>
  <text x="303" y="330" fill="#6D4A14" font-family="Arial, Helvetica, sans-serif" font-size="13" font-weight="700">IA</text>

  <rect x="454" y="24" width="242" height="372" rx="24" fill="url(#botPanel)"/>
  <rect x="478" y="50" width="194" height="126" rx="18" fill="#FFF7EA"/>
  <text x="502" y="82" fill="#A06E1E" font-family="Arial, Helvetica, sans-serif" font-size="12" font-weight="700" letter-spacing="1.2">OPS TOOLING</text>
  <text x="502" y="110" fill="#624414" font-family="Arial, Helvetica, sans-serif" font-size="19" font-weight="700">atendimento</text>
  <text x="502" y="136" fill="#624414" font-family="Arial, Helvetica, sans-serif" font-size="19" font-weight="700">assistido</text>
  <text x="502" y="162" fill="#624414" font-family="Arial, Helvetica, sans-serif" font-size="19" font-weight="700">macros e IA</text>

  <rect x="478" y="190" width="194" height="160" rx="18" fill="#342815" stroke="#D7AA58"/>
  <text x="502" y="222" fill="#F2C46F" font-family="Arial, Helvetica, sans-serif" font-size="12" font-weight="700" letter-spacing="1.2">CAPACIDADES</text>
  <rect x="502" y="244" width="160" height="10" rx="5" fill="#8A6836"/>
  <rect x="502" y="266" width="120" height="10" rx="5" fill="#8A6836"/>
  <rect x="502" y="288" width="148" height="10" rx="5" fill="#8A6836"/>
  <rect x="502" y="310" width="136" height="10" rx="5" fill="#8A6836"/>
  <rect x="502" y="332" width="124" height="10" rx="5" fill="#8A6836"/>

  <rect x="478" y="362" width="88" height="20" rx="10" fill="#5A431E"/>
  <rect x="576" y="362" width="96" height="20" rx="10" fill="#7C5721"/>
  <text x="495" y="376" fill="#FFF0D5" font-family="Arial, Helvetica, sans-serif" font-size="10" font-weight="700" letter-spacing="0.8">DESKTOP</text>
  <text x="596" y="376" fill="#FFF0D5" font-family="Arial, Helvetica, sans-serif" font-size="10" font-weight="700" letter-spacing="0.8">AI OPS</text>
</svg>
