<svg width="720" height="420" viewBox="0 0 720 420" fill="none" xmlns="http://www.w3.org/2000/svg">
  <rect width="720" height="420" rx="28" fill="#1B3966"/>
  <rect x="454" y="24" width="242" height="372" rx="24" fill="#234476"/>
  <rect x="478" y="52" width="194" height="118" rx="18" fill="#F3F7FF"/>
  <text x="502" y="86" fill="#29549B" font-family="Arial, Helvetica, sans-serif" font-size="13" font-weight="700" letter-spacing="1.3">BACKEND DEMO</text>
  <text x="502" y="116" fill="#173866" font-family="Arial, Helvetica, sans-serif" font-size="20" font-weight="700">payloads demo</text>
  <text x="502" y="142" fill="#173866" font-family="Arial, Helvetica, sans-serif" font-size="20" font-weight="700">consistentes</text>
  <rect x="478" y="196" width="194" height="152" rx="18" fill="#173459" stroke="#5C8FE6"/>
  <text x="502" y="228" fill="#9AC0FF" font-family="Arial, Helvetica, sans-serif" font-size="12" font-weight="700" letter-spacing="1.3">ENDPOINTS</text>
  <rect x="502" y="248" width="138" height="10" rx="5" fill="#3B65A2"/>
  <rect x="502" y="270" width="160" height="10" rx="5" fill="#3B65A2"/>
  <rect x="502" y="292" width="118" height="10" rx="5" fill="#3B65A2"/>
  <rect x="502" y="314" width="148" height="10" rx="5" fill="#3B65A2"/>
  <rect x="40" y="40" width="144" height="34" rx="17" fill="#0D213E" stroke="#4F84D9"/>
  <text x="63" y="62" fill="#A9C8FF" font-family="Arial, Helvetica, sans-serif" font-size="14" font-weight="700" letter-spacing="1">NODE API</text>
  <text x="40" y="130" fill="#F7FAFF" font-family="Arial, Helvetica, sans-serif" font-size="38" font-weight="700">Escola Tecnica</text>
  <text x="40" y="172" fill="#F7FAFF" font-family="Arial, Helvetica, sans-serif" font-size="38" font-weight="700">Demo API</text>
  <text x="40" y="236" fill="#D7E4FF" font-family="Arial, Helvetica, sans-serif" font-size="20">catalogo, leads,</text>
  <text x="40" y="266" fill="#D7E4FF" font-family="Arial, Helvetica, sans-serif" font-size="20">intencoes e metricas</text>
  <text x="40" y="296" fill="#D7E4FF" font-family="Arial, Helvetica, sans-serif" font-size="20">de funil</text>
  <rect x="40" y="338" width="96" height="34" rx="17" fill="#DFE9FF"/>
  <rect x="148" y="338" width="128" height="34" rx="17" fill="#DFE9FF"/>
  <rect x="288" y="338" width="102" height="34" rx="17" fill="#DFE9FF"/>
  <text x="64" y="360" fill="#1D4C90" font-family="Arial, Helvetica, sans-serif" font-size="13" font-weight="700">NODE</text>
  <text x="170" y="360" fill="#1D4C90" font-family="Arial, Helvetica, sans-serif" font-size="13" font-weight="700">TYPESCRIPT</text>
  <text x="313" y="360" fill="#1D4C90" font-family="Arial, Helvetica, sans-serif" font-size="13" font-weight="700">EXPRESS</text>
</svg>
