<svg width="720" height="420" viewBox="0 0 720 420" fill="none" xmlns="http://www.w3.org/2000/svg">
  <rect width="720" height="420" rx="28" fill="#173B3C"/>
  <rect x="454" y="24" width="242" height="372" rx="24" fill="#214C4D"/>
  <rect x="478" y="52" width="194" height="118" rx="18" fill="#F2FBF8"/>
  <text x="502" y="86" fill="#1B4B49" font-family="Arial, Helvetica, sans-serif" font-size="13" font-weight="700" letter-spacing="1.3">LIVE DEMO</text>
  <text x="502" y="112" fill="#163D3B" font-family="Arial, Helvetica, sans-serif" font-size="18" font-weight="700">jornada</text>
  <text x="502" y="136" fill="#163D3B" font-family="Arial, Helvetica, sans-serif" font-size="18" font-weight="700">publica pronta</text>
  <text x="502" y="160" fill="#163D3B" font-family="Arial, Helvetica, sans-serif" font-size="18" font-weight="700">para demo</text>
  <rect x="478" y="196" width="194" height="152" rx="18" fill="#143334" stroke="#4F8E89"/>
  <text x="502" y="228" fill="#8FE6D8" font-family="Arial, Helvetica, sans-serif" font-size="12" font-weight="700" letter-spacing="1.3">FLUXO</text>
  <rect x="502" y="248" width="146" height="10" rx="5" fill="#295F60"/>
  <rect x="502" y="270" width="116" height="10" rx="5" fill="#295F60"/>
  <rect x="502" y="292" width="160" height="10" rx="5" fill="#295F60"/>
  <rect x="502" y="314" width="128" height="10" rx="5" fill="#295F60"/>
  <rect x="40" y="40" width="176" height="34" rx="17" fill="#0D2627" stroke="#6CC7BA"/>
  <text x="62" y="62" fill="#A5F1E6" font-family="Arial, Helvetica, sans-serif" font-size="14" font-weight="700" letter-spacing="1">SHOWCASE DEMO</text>
  <text x="40" y="130" fill="#F4FFFC" font-family="Arial, Helvetica, sans-serif" font-size="38" font-weight="700">Escola Tecnica</text>
  <text x="40" y="172" fill="#F4FFFC" font-family="Arial, Helvetica, sans-serif" font-size="38" font-weight="700">Demo Front</text>
  <text x="40" y="236" fill="#D4ECE7" font-family="Arial, Helvetica, sans-serif" font-size="20">landing, catalogo,</text>
  <text x="40" y="266" fill="#D4ECE7" font-family="Arial, Helvetica, sans-serif" font-size="20">pre-qualificacao, matricula</text>
  <text x="40" y="296" fill="#D4ECE7" font-family="Arial, Helvetica, sans-serif" font-size="20">e painel demo</text>
  <rect x="40" y="338" width="86" height="34" rx="17" fill="#DDF7F1"/>
  <rect x="138" y="338" width="78" height="34" rx="17" fill="#DDF7F1"/>
  <rect x="228" y="338" width="62" height="34" rx="17" fill="#DDF7F1"/>
  <rect x="302" y="338" width="96" height="34" rx="17" fill="#DDF7F1"/>
  <text x="66" y="360" fill="#164342" font-family="Arial, Helvetica, sans-serif" font-size="13" font-weight="700">HTML</text>
  <text x="162" y="360" fill="#164342" font-family="Arial, Helvetica, sans-serif" font-size="13" font-weight="700">CSS</text>
  <text x="250" y="360" fill="#164342" font-family="Arial, Helvetica, sans-serif" font-size="13" font-weight="700">JS</text>
  <text x="330" y="360" fill="#164342" font-family="Arial, Helvetica, sans-serif" font-size="13" font-weight="700">VERCEL</text>
</svg>
