<svg width="720" height="420" viewBox="0 0 720 420" fill="none" xmlns="http://www.w3.org/2000/svg">
  <rect width="720" height="420" rx="28" fill="#1A4D3F"/>
  <rect x="454" y="24" width="242" height="372" rx="24" fill="#205D4C"/>
  <rect x="478" y="52" width="194" height="118" rx="18" fill="#F3FFF9"/>
  <text x="502" y="86" fill="#2F7A60" font-family="Arial, Helvetica, sans-serif" font-size="12" font-weight="700" letter-spacing="1.1">PRIVATE FLOWS</text>
  <text x="502" y="116" fill="#1E513F" font-family="Arial, Helvetica, sans-serif" font-size="20" font-weight="700">IA rodando perto</text>
  <text x="502" y="142" fill="#1E513F" font-family="Arial, Helvetica, sans-serif" font-size="20" font-weight="700">do usuario</text>
  <rect x="478" y="196" width="194" height="152" rx="18" fill="#184838" stroke="#56A182"/>
  <text x="502" y="228" fill="#A3E6D0" font-family="Arial, Helvetica, sans-serif" font-size="12" font-weight="700" letter-spacing="1.3">AUTOMACAO</text>
  <rect x="502" y="248" width="132" height="10" rx="5" fill="#3C7F6A"/>
  <rect x="502" y="270" width="156" height="10" rx="5" fill="#3C7F6A"/>
  <rect x="502" y="292" width="120" height="10" rx="5" fill="#3C7F6A"/>
  <rect x="502" y="314" width="144" height="10" rx="5" fill="#3C7F6A"/>
  <rect x="40" y="40" width="182" height="34" rx="17" fill="#123126" stroke="#56A182"/>
  <text x="61" y="62" fill="#A3E6D0" font-family="Arial, Helvetica, sans-serif" font-size="14" font-weight="700" letter-spacing="1">LOCAL-FIRST IA</text>
  <text x="40" y="130" fill="#F4FFF9" font-family="Arial, Helvetica, sans-serif" font-size="38" font-weight="700">Merlin IA</text>
  <text x="40" y="236" fill="#D7F1E6" font-family="Arial, Helvetica, sans-serif" font-size="20">assistente Linux para automacao</text>
  <text x="40" y="266" fill="#D7F1E6" font-family="Arial, Helvetica, sans-serif" font-size="20">e fluxos privados</text>
  <text x="40" y="296" fill="#D7F1E6" font-family="Arial, Helvetica, sans-serif" font-size="20">de produtividade</text>
  <rect x="40" y="338" width="98" height="34" rx="17" fill="#DFF8EE"/>
  <rect x="150" y="338" width="122" height="34" rx="17" fill="#DFF8EE"/>
  <rect x="284" y="338" width="126" height="34" rx="17" fill="#DFF8EE"/>
  <text x="64" y="360" fill="#1E5B48" font-family="Arial, Helvetica, sans-serif" font-size="13" font-weight="700">PYTHON</text>
  <text x="170" y="360" fill="#1E5B48" font-family="Arial, Helvetica, sans-serif" font-size="13" font-weight="700">AUTOMATION</text>
  <text x="311" y="360" fill="#1E5B48" font-family="Arial, Helvetica, sans-serif" font-size="13" font-weight="700">LOCAL-FIRST</text>
</svg>
