<svg width="720" height="420" viewBox="0 0 720 420" fill="none" xmlns="http://www.w3.org/2000/svg">
  <rect width="720" height="420" rx="28" fill="#3E301A"/>
  <rect x="452" y="24" width="244" height="372" rx="24" fill="#4A391F"/>
  <rect x="476" y="52" width="196" height="128" rx="18" fill="#FFF7EA"/>
  <text x="500" y="84" fill="#A06E1E" font-family="Arial, Helvetica, sans-serif" font-size="12" font-weight="700" letter-spacing="1.3">OPS TOOL</text>
  <text x="500" y="114" fill="#624414" font-family="Arial, Helvetica, sans-serif" font-size="16" font-weight="700">chat</text>
  <text x="500" y="138" fill="#624414" font-family="Arial, Helvetica, sans-serif" font-size="16" font-weight="700">queue</text>
  <text x="500" y="162" fill="#624414" font-family="Arial, Helvetica, sans-serif" font-size="16" font-weight="700">AI assist</text>
  <rect x="476" y="194" width="196" height="154" rx="18" fill="#342815" stroke="#D7AA58"/>
  <text x="500" y="226" fill="#F2C46F" font-family="Arial, Helvetica, sans-serif" font-size="12" font-weight="700" letter-spacing="1.3">CAPABILITIES</text>
  <rect x="500" y="246" width="160" height="10" rx="5" fill="#7E6030"/>
  <rect x="500" y="268" width="120" height="10" rx="5" fill="#7E6030"/>
  <rect x="500" y="290" width="148" height="10" rx="5" fill="#7E6030"/>
  <rect x="500" y="312" width="136" height="10" rx="5" fill="#7E6030"/>
  <rect x="40" y="40" width="158" height="34" rx="17" fill="#241B0F" stroke="#D7AA58"/>
  <text x="61" y="62" fill="#F4D29A" font-family="Arial, Helvetica, sans-serif" font-size="13" font-weight="700" letter-spacing="1">OPS + AI</text>
  <text x="40" y="130" fill="#FFF9F0" font-family="Arial, Helvetica, sans-serif" font-size="34" font-weight="700">BotAssist</text>
  <text x="40" y="170" fill="#FFF9F0" font-family="Arial, Helvetica, sans-serif" font-size="34" font-weight="700">WhatsApp</text>
  <text x="40" y="230" fill="#F2E1C0" font-family="Arial, Helvetica, sans-serif" font-size="18">desktop ops com Electron</text>
  <text x="40" y="258" fill="#F2E1C0" font-family="Arial, Helvetica, sans-serif" font-size="18">Baileys e automacao</text>
  <rect x="40" y="338" width="118" height="34" rx="17" fill="#FFF1D8"/>
  <rect x="170" y="338" width="100" height="34" rx="17" fill="#FFF1D8"/>
  <rect x="282" y="338" width="62" height="34" rx="17" fill="#FFF1D8"/>
  <text x="64" y="360" fill="#6D4A14" font-family="Arial, Helvetica, sans-serif" font-size="13" font-weight="700">ELECTRON</text>
  <text x="194" y="360" fill="#6D4A14" font-family="Arial, Helvetica, sans-serif" font-size="13" font-weight="700">BAILEYS</text>
  <text x="303" y="360" fill="#6D4A14" font-family="Arial, Helvetica, sans-serif" font-size="13" font-weight="700">IA</text>
</svg>
