<svg width="720" height="420" viewBox="0 0 720 420" fill="none" xmlns="http://www.w3.org/2000/svg">
  <rect width="720" height="420" rx="28" fill="#173B3C"/>
  <rect x="452" y="24" width="244" height="372" rx="24" fill="#214C4D"/>
  <rect x="476" y="52" width="196" height="128" rx="18" fill="#F2FBF8"/>
  <text x="500" y="84" fill="#1B4B49" font-family="Arial, Helvetica, sans-serif" font-size="12" font-weight="700" letter-spacing="1.3">LIVE DEMO</text>
  <text x="500" y="114" fill="#163D3B" font-family="Arial, Helvetica, sans-serif" font-size="16" font-weight="700">landing</text>
  <text x="500" y="138" fill="#163D3B" font-family="Arial, Helvetica, sans-serif" font-size="16" font-weight="700">catalogo</text>
  <text x="500" y="162" fill="#163D3B" font-family="Arial, Helvetica, sans-serif" font-size="16" font-weight="700">matricula</text>
  <rect x="476" y="194" width="196" height="154" rx="18" fill="#143334" stroke="#4F8E89"/>
  <text x="500" y="226" fill="#8FE6D8" font-family="Arial, Helvetica, sans-serif" font-size="12" font-weight="700" letter-spacing="1.3">FLOW</text>
  <rect x="500" y="246" width="148" height="10" rx="5" fill="#295F60"/>
  <rect x="500" y="268" width="116" height="10" rx="5" fill="#295F60"/>
  <rect x="500" y="290" width="160" height="10" rx="5" fill="#295F60"/>
  <rect x="500" y="312" width="128" height="10" rx="5" fill="#295F60"/>
  <rect x="40" y="40" width="156" height="34" rx="17" fill="#0D2627" stroke="#6CC7BA"/>
  <text x="62" y="62" fill="#A5F1E6" font-family="Arial, Helvetica, sans-serif" font-size="13" font-weight="700" letter-spacing="1">SHOWCASE</text>
  <text x="40" y="130" fill="#F4FFFC" font-family="Arial, Helvetica, sans-serif" font-size="34" font-weight="700">Escola Tecnica</text>
  <text x="40" y="170" fill="#F4FFFC" font-family="Arial, Helvetica, sans-serif" font-size="34" font-weight="700">Demo Front</text>
  <text x="40" y="230" fill="#D4ECE7" font-family="Arial, Helvetica, sans-serif" font-size="18">landing, catalogo</text>
  <text x="40" y="258" fill="#D4ECE7" font-family="Arial, Helvetica, sans-serif" font-size="18">matricula e painel</text>
  <rect x="40" y="338" width="86" height="34" rx="17" fill="#DDF7F1"/>
  <rect x="138" y="338" width="78" height="34" rx="17" fill="#DDF7F1"/>
  <rect x="228" y="338" width="62" height="34" rx="17" fill="#DDF7F1"/>
  <rect x="302" y="338" width="96" height="34" rx="17" fill="#DDF7F1"/>
  <text x="66" y="360" fill="#164342" font-family="Arial, Helvetica, sans-serif" font-size="13" font-weight="700">HTML</text>
  <text x="162" y="360" fill="#164342" font-family="Arial, Helvetica, sans-serif" font-size="13" font-weight="700">CSS</text>
  <text x="250" y="360" fill="#164342" font-family="Arial, Helvetica, sans-serif" font-size="13" font-weight="700">JS</text>
  <text x="330" y="360" fill="#164342" font-family="Arial, Helvetica, sans-serif" font-size="13" font-weight="700">VERCEL</text>
</svg>
